<svg width="583" height="143" viewBox="0 0 583 143" fill="none" xmlns="http://www.w3.org/2000/svg">
<path fill-rule="evenodd" clip-rule="evenodd" d="M126.486 66.9957C136.332 63.0547 142.572 57.7418 142.572 51.1109C142.572 43.2021 133.695 37.1764 120.433 33.1145C117.703 32.2671 114.771 31.5139 111.704 30.8683C111.059 27.8016 110.305 24.8695 109.458 22.1391C105.396 8.87712 99.3701 0 91.4615 0C84.8307 0 79.5179 6.24092 75.5767 16.0865C75.227 16.9742 74.8773 17.9022 74.541 18.8572C73.6669 21.359 72.8598 24.0625 72.1469 26.9139C71.8645 26.9005 71.5686 26.9005 71.2862 26.9005C71.0038 26.9005 70.7079 26.9005 70.4255 26.9139C69.7261 24.0625 68.9189 21.359 68.0313 18.8572C67.6951 17.9157 67.3588 17.0011 67.0091 16.1133C63.068 6.25439 57.7417 0 51.1109 0C43.2023 0 37.1763 8.87712 33.1146 22.1525C32.2805 24.8829 31.5273 27.8016 30.8547 30.8683C27.788 31.5273 24.8695 32.2805 22.1525 33.1145C8.87728 37.1764 0 43.2021 0 51.1109C0 57.7418 6.24076 63.0547 16.0999 66.9957C16.9875 67.3452 17.9023 67.6949 18.8572 68.0177C21.3588 68.9055 24.0488 69.7125 26.9139 70.4254V72.147C24.0488 72.8599 21.3588 73.6669 18.8572 74.5547C17.9158 74.8775 17.0009 75.2137 16.1268 75.5634C6.25422 79.5043 0 84.8172 0 91.4615C0 99.3703 8.87728 105.396 22.1525 109.458C24.8695 110.292 27.788 111.045 30.8547 111.704C31.5138 114.757 32.2671 117.676 33.1146 120.406C37.1628 133.682 43.2023 142.572 51.1109 142.572C57.7417 142.572 63.068 136.318 67.0091 126.459C67.1684 126.055 67.3247 125.645 67.4797 125.229C67.6649 124.733 67.8481 124.228 68.0313 123.715C68.9189 121.213 69.7261 118.51 70.4255 115.658C70.5428 115.664 70.6623 115.667 70.7825 115.669C70.9513 115.672 71.121 115.672 71.2862 115.672C71.5686 115.672 71.8645 115.672 72.1469 115.658C72.8598 118.51 73.6669 121.213 74.541 123.715C74.8773 124.67 75.227 125.598 75.5767 126.486C79.5179 136.331 84.8307 142.572 91.4615 142.572C99.3701 142.572 105.396 133.695 109.458 120.42C110.305 117.689 111.059 114.771 111.704 111.704C114.771 111.058 117.703 110.305 120.433 109.458C133.695 105.396 142.572 99.3703 142.572 91.4615C142.572 84.8305 136.318 79.5043 126.459 75.5634C126.037 75.3971 125.608 75.2338 125.173 75.072C124.695 74.8939 124.209 74.7176 123.715 74.5412C121.214 73.6535 118.51 72.8465 115.658 72.147C115.672 71.8646 115.672 71.5686 115.672 71.2862C115.672 71.0038 115.672 70.7078 115.658 70.4254C118.51 69.7259 121.214 68.9189 123.715 68.0312C124.151 67.8777 124.581 67.7214 125.005 67.5634C125.509 67.3756 126.004 67.1856 126.486 66.9957ZM65.4352 99.4509C65.032 102.316 64.5746 105.006 64.0633 107.494C63.4177 107.481 62.7721 107.454 62.14 107.427C59.9747 107.346 57.9033 107.239 55.8858 107.091C52.429 106.862 49.1876 106.553 46.1343 106.176C46.7799 109.323 47.4794 112.081 48.2057 114.475C50.0752 114.663 51.9581 114.838 53.8682 114.986C56.5987 115.215 59.3692 115.376 62.1534 115.484C61.3062 118.523 60.3914 121.173 59.4634 123.446C56.3698 131.005 53.1015 134.502 51.1109 134.502C48.9991 134.502 45.408 130.521 42.1531 121.872C41.2248 119.411 40.3103 116.56 39.49 113.318C38.831 110.763 38.212 107.965 37.6606 104.912C37.1897 102.276 36.7596 99.4509 36.3964 96.4381C36.0197 93.385 35.7104 90.1434 35.4815 86.6866C32.4956 87.3189 29.8729 88.0182 27.5864 88.7176C27.6482 89.5131 27.7145 90.304 27.7844 91.0901C27.8826 92.1915 27.9877 93.2837 28.0974 94.3668C28.4202 97.3393 28.8103 100.258 29.2542 103.083C26.0129 102.262 23.1612 101.347 20.6998 100.419C12.0514 97.1644 8.07014 93.5732 8.07014 91.4615C8.07014 89.4709 11.5673 86.2025 19.1262 83.109C21.3992 82.1809 24.0488 81.2663 27.0886 80.419C28.1647 80.1096 29.2812 79.8136 30.4512 79.5312C31.3122 79.3258 32.1962 79.1204 33.109 78.9206C33.7507 78.78 34.4064 78.6423 35.0783 78.509C37.5664 77.9979 40.2564 77.5406 43.1215 77.137C47.3851 76.5318 52.0792 76.0611 57.1769 75.7516C58.6297 80.3247 62.2342 83.9429 66.8206 85.3955C66.5113 90.5066 66.0407 95.2007 65.4352 99.4509ZM57.1769 66.8208C52.0658 66.5113 47.3717 66.0406 43.1215 65.4354C40.2564 65.0318 37.5664 64.5746 35.0783 64.0634C35.0918 63.4179 35.1187 62.7723 35.1453 62.14C35.2261 59.9745 35.3338 57.9033 35.4815 55.8857C35.7104 52.429 36.0197 49.1875 36.3964 46.1343C33.2489 46.7933 30.4916 47.4927 28.0974 48.2056C27.9092 50.0617 27.7345 51.9448 27.5864 53.8547C27.3579 56.5851 27.1963 59.3559 27.0886 62.1534C24.0488 61.3061 21.3992 60.3915 19.1262 59.4634C11.5673 56.3699 8.07014 53.1015 8.07014 51.1109C8.07014 48.9992 12.0514 45.408 20.6998 42.153C23.1612 41.2115 26.0129 40.3103 29.2542 39.4898C31.8097 38.8308 34.6074 38.2121 37.6606 37.6606C40.2968 37.1899 43.1215 36.7595 46.1343 36.3963C49.1876 36.0197 52.429 35.7103 55.8858 35.4817C55.2536 32.4957 54.5677 29.873 53.8682 27.5864C51.9581 27.7344 50.0752 27.9092 48.2057 28.0975C45.233 28.4203 42.3144 28.8104 39.49 29.2542C40.3103 26.0128 41.2248 23.1612 42.1531 20.6999C45.408 12.0514 48.9991 8.07014 51.1109 8.07014C53.1015 8.07014 56.3698 11.5672 59.4634 19.1262C60.3914 21.3993 61.3062 24.049 62.1534 27.0888C62.4628 28.1648 62.7452 29.2677 63.0414 30.4379L64.0633 35.0782C64.5746 37.5665 65.032 40.2565 65.4352 43.1214C66.0407 47.3717 66.4978 52.0659 66.8206 57.1769C62.2477 58.6295 58.6297 62.2342 57.1769 66.8208ZM123.446 83.109C131.005 86.2025 134.502 89.4709 134.502 91.4615C134.502 93.5732 130.521 97.1644 121.873 100.419C119.411 101.347 116.56 102.262 113.318 103.083C110.763 103.742 107.965 104.36 104.912 104.912C102.276 105.382 99.4509 105.813 96.4381 106.176C93.3848 106.553 90.1434 106.862 86.6866 107.091C87.3188 110.077 88.0047 112.699 88.7042 114.986C89.2549 114.943 89.8032 114.898 90.3497 114.852C91.6986 114.736 93.0361 114.609 94.3667 114.475C97.3395 114.152 100.258 113.762 103.082 113.318C102.262 116.56 101.361 119.411 100.419 121.872C97.1644 130.521 93.5733 134.502 91.4615 134.502C89.4709 134.502 86.2026 131.005 83.109 123.446C82.181 121.173 81.2662 118.523 80.419 115.484C80.1096 114.408 79.8272 113.305 79.531 112.135C79.1816 110.668 78.8319 109.122 78.5091 107.494C77.9979 105.006 77.5404 102.316 77.1372 99.4509C76.5317 95.2007 76.0746 90.5066 75.7518 85.3955C80.3247 83.9429 83.9427 80.3382 85.3955 75.7516C90.5066 76.0611 95.2007 76.5318 99.4509 77.137C102.316 77.5406 105.006 77.9979 107.494 78.509C107.481 79.1546 107.454 79.8001 107.427 80.4324C107.346 82.5979 107.239 84.6691 107.091 86.6866C106.862 90.1434 106.553 93.385 106.176 96.4381C109.323 95.7925 112.081 95.093 114.475 94.3668C114.563 93.4886 114.649 92.6074 114.73 91.7218C114.821 90.722 114.907 89.7169 114.986 88.7042C115.215 85.9739 115.376 83.2031 115.484 80.419C118.524 81.2663 121.173 82.1809 123.446 83.109ZM115.484 62.1534C114.408 62.4628 113.305 62.7453 112.135 63.0412L107.494 64.0634C105.006 64.5746 102.316 65.0318 99.4509 65.4354C95.2007 66.0406 90.5066 66.5113 85.3955 66.8208C83.9427 62.2477 80.3382 58.6295 75.7518 57.1769C76.0611 52.0659 76.5317 47.3717 77.1372 43.1214C77.5404 40.2565 77.9979 37.5665 78.5091 35.0782C78.8322 35.0849 79.1554 35.095 79.4768 35.1069C79.7977 35.1186 80.1169 35.132 80.4324 35.1454C82.5977 35.2261 84.6691 35.3338 86.6866 35.4817C90.1434 35.7103 93.3848 36.0197 96.4381 36.3963C95.7925 33.2489 95.093 30.4916 94.3667 28.0975C93.856 28.0462 93.3444 27.9957 92.8315 27.9466C91.4668 27.8157 90.0925 27.694 88.7042 27.5864C85.9737 27.3578 83.2032 27.1963 80.419 27.0888C81.2662 24.049 82.181 21.3993 83.109 19.1262C86.2026 11.5672 89.4709 8.07014 91.4615 8.07014C93.5733 8.07014 97.1644 12.0514 100.419 20.6999C101.361 23.1612 102.262 26.0128 103.082 29.2542C103.741 31.8098 104.36 34.6074 104.912 37.6606C105.383 40.2969 105.813 43.1214 106.176 46.1343C106.553 49.1875 106.862 52.429 107.091 55.8857C110.077 55.2536 112.699 54.5676 114.986 53.8681C114.838 51.9582 114.663 50.0752 114.475 48.2056C114.152 45.2331 113.762 42.3144 113.318 39.4898C116.56 40.3103 119.411 41.2115 121.873 42.153C130.521 45.408 134.502 48.9992 134.502 51.1109C134.502 53.1015 131.005 56.3699 123.446 59.4634C121.173 60.3915 118.524 61.3061 115.484 62.1534Z" fill="black"/>
<path d="M197.355 56.3834C190.522 56.3834 186.259 59.4903 184.08 63.1353V42.6507H174.839V98.913H184.08V76.7201C184.08 68.2599 187.577 63.9155 193.858 63.9155C201.229 63.9155 202.009 69.2687 202.009 75.55V98.913H211.249V72.9944C211.249 62.826 207.685 56.3834 197.355 56.3834Z" fill="black"/>
<path d="M235.809 92.3224C242.01 92.3224 245.198 88.2067 245.198 79.7464V57.15H254.505V98.8996H245.198V93.0082C242.79 97.0432 239.145 99.9083 232.474 99.9083C222.225 99.9083 218.66 93.4791 218.66 83.23V57.1635H227.901V80.7552C227.901 87.0498 228.667 92.3224 235.809 92.3224Z" fill="black"/>
<path d="M310.687 56.3833C304.863 56.3833 299.9 58.7101 296.564 63.6062C294.708 59.0331 290.902 56.3833 284.378 56.3833C277.855 56.3833 273.981 59.4903 271.802 63.1353V57.1635H262.562V98.913H271.802V76.6394C271.802 68.2599 275.138 63.9155 280.881 63.9155C288.023 63.9155 288.871 69.2687 288.871 75.5498V98.913H298.111V76.6394C298.111 68.2599 301.446 63.9155 307.19 63.9155C314.332 63.9155 315.179 69.2687 315.179 75.5498V98.913H324.419V72.9944C324.419 62.826 320.774 56.3833 310.687 56.3833Z" fill="black"/>
<path fill-rule="evenodd" clip-rule="evenodd" d="M349.289 56.1547C360.937 56.1547 366.909 61.4271 366.909 73.5323H366.895V82.9207C366.895 89.4305 367.285 95.0259 368.065 98.8996H358.758C358.449 96.882 358.287 95.1738 358.287 93.3848C355.489 97.7292 350.916 99.9083 344.083 99.9083C336.256 99.9083 329.732 95.4024 329.732 87.8031C329.732 77.7962 340.977 74.6891 357.816 73.0617V72.1336C357.816 65.6237 354.333 63.2161 349.208 63.2161C344.083 63.2161 340.909 65.8523 340.519 70.506H331.44C332.14 61.898 339.12 56.1547 349.289 56.1547ZM346.814 93.1697C352.867 93.1697 358.22 90.4528 358.22 81.4547V79.4371C346.881 80.513 339.591 82.1406 339.591 87.3457C339.591 90.8429 342.47 93.1697 346.814 93.1697Z" fill="black"/>
<path d="M397.266 56.3833C390.433 56.3833 386.17 59.4903 383.991 63.1353V57.1635H374.75V98.913H383.991V76.7201C383.991 68.2599 387.488 63.9155 393.769 63.9155C401.14 63.9155 401.92 69.2687 401.92 75.5498V98.913H411.16V72.9944C411.16 62.826 407.596 56.3833 397.266 56.3833Z" fill="black"/>
<path d="M447.301 46.2957L447.287 46.2822V46.2957H438.06V57.1635H431.47V64.144H438.06V87.9644C438.06 97.0432 440.549 98.8996 449.386 98.8996H455.667V91.7574H452.103C447.987 91.7574 447.287 90.7486 447.287 86.5522V64.1306H455.667V57.15H447.287V46.2957H447.301Z" fill="black"/>
<path fill-rule="evenodd" clip-rule="evenodd" d="M478.089 56.2354C466.373 56.2354 457.066 64.7762 457.066 77.9575C457.066 91.1387 465.136 99.9218 478.478 99.9218C487.947 99.9218 495.318 94.6492 497.954 86.4177H488.956C487.248 89.9147 483.993 92.3089 478.331 92.3089C472.977 92.3089 467.463 89.1212 466.535 80.5937H498.344C498.425 79.8136 498.425 79.1949 498.425 78.5761C498.425 65.8523 490.584 56.2219 478.089 56.2219V56.2354ZM466.682 74.0032C467.92 66.0944 473.125 63.7539 478.089 63.7539C484.302 63.7539 488.405 67.9506 488.875 74.0032H466.682Z" fill="black"/>
<path d="M511.391 77.9575C511.391 88.0451 516.744 92.3089 522.326 92.3089C527.76 92.3089 531.486 88.8925 532.414 84.6287H541.493C539.542 94.2593 531.096 99.9218 521.855 99.9218C509.279 99.9218 501.68 90.6007 501.68 77.9575C501.68 65.3144 509.831 56.2354 522.326 56.2354C531.862 56.2354 539.475 62.4358 541.022 71.5955H532.024C531.015 66.7131 527.141 63.9155 522.326 63.9155C516.663 63.9155 511.391 67.8698 511.391 77.9575Z" fill="black"/>
<path d="M569.106 56.3834C562.273 56.3834 558.009 59.4903 555.831 63.1353V42.6507H546.59V98.913H555.831V76.7201C555.831 68.2599 559.327 63.9155 565.609 63.9155C572.979 63.9155 573.76 69.2687 573.76 75.55V98.913H583V72.9944C583 62.826 579.436 56.3834 569.106 56.3834Z" fill="black"/>
<path d="M430.259 93.1697C430.259 96.5126 427.55 99.2224 424.207 99.2224C420.864 99.2224 418.154 96.5126 418.154 93.1697C418.154 89.8269 420.864 87.1171 424.207 87.1171C427.55 87.1171 430.259 89.8269 430.259 93.1697Z" fill="black"/>
</svg>
